<svg xmlns="http://www.w3.org/2000/svg" width="1254" height="1254" viewBox="0 0 1254 1254">
  <defs>
    <linearGradient id="bg" x1="0" y1="0" x2="0" y2="1">
      <stop offset="0" stop-color="#ffffff"/>
      <stop offset="1" stop-color="#fcfcfc"/>
    </linearGradient>
  </defs>
  <!-- Transparent outer corners and a clean rounded app tile -->
  <rect x="67" y="53" width="1120" height="1125" rx="154" fill="url(#bg)"/>
  <!-- Exactly mirrored ornamental geometry -->
  <path d="M 626 175 L 625 177 L 620 182 L 620 183 L 607 196 L 607 197 L 605 199 L 604 199 L 593 210 L 592 210 L 588 214 L 587 214 L 583 218 L 579 220 L 576 223 L 575 223 L 564 231 L 557 234 L 555 236 L 535 246 L 533 246 L 505 260 L 503 262 L 500 263 L 498 265 L 495 266 L 493 268 L 489 270 L 486 273 L 485 273 L 482 276 L 481 276 L 477 280 L 476 280 L 462 294 L 462 295 L 457 300 L 457 301 L 454 304 L 454 305 L 448 313 L 446 318 L 444 320 L 442 324 L 442 326 L 437 336 L 437 338 L 435 342 L 435 345 L 434 346 L 434 349 L 433 350 L 433 353 L 431 356 L 333 356 L 333 454 L 332 455 L 327 455 L 326 456 L 319 457 L 318 458 L 316 458 L 315 459 L 313 459 L 312 460 L 307 461 L 293 468 L 291 470 L 290 470 L 288 472 L 284 474 L 273 484 L 272 484 L 265 491 L 265 492 L 260 497 L 260 498 L 256 502 L 254 506 L 251 509 L 250 512 L 248 514 L 245 520 L 243 522 L 241 527 L 239 529 L 238 532 L 236 534 L 233 541 L 231 543 L 227 551 L 223 556 L 222 559 L 217 565 L 217 566 L 212 572 L 212 573 L 209 576 L 209 577 L 205 581 L 205 582 L 193 594 L 192 596 L 191 596 L 183 604 L 182 604 L 178 608 L 177 608 L 174 611 L 170 613 L 167 616 L 166 616 L 161 620 L 156 622 L 154 624 L 148 627 L 155 630 L 157 632 L 165 636 L 171 641 L 172 641 L 178 646 L 179 646 L 184 651 L 185 651 L 204 670 L 204 671 L 208 675 L 208 676 L 211 679 L 211 680 L 214 683 L 216 687 L 219 690 L 219 691 L 223 696 L 224 699 L 226 701 L 227 704 L 229 706 L 231 711 L 233 713 L 236 720 L 238 722 L 240 727 L 242 729 L 244 734 L 246 736 L 247 739 L 249 741 L 249 742 L 251 744 L 253 748 L 256 751 L 256 752 L 259 755 L 259 756 L 263 760 L 263 761 L 276 774 L 277 774 L 281 778 L 282 778 L 288 783 L 291 784 L 293 786 L 296 787 L 298 789 L 302 791 L 304 791 L 314 796 L 317 796 L 318 797 L 320 797 L 321 798 L 325 798 L 326 799 L 330 799 L 333 801 L 333 895 L 428 895 L 429 896 L 430 905 L 432 909 L 432 912 L 433 913 L 434 918 L 436 921 L 436 923 L 438 926 L 438 928 L 445 942 L 447 944 L 448 947 L 450 949 L 450 950 L 452 952 L 454 956 L 460 963 L 460 964 L 480 984 L 481 984 L 489 991 L 490 991 L 498 997 L 501 998 L 503 1000 L 506 1001 L 508 1003 L 526 1012 L 528 1012 L 556 1026 L 558 1028 L 563 1030 L 568 1034 L 571 1035 L 577 1040 L 578 1040 L 584 1045 L 585 1045 L 588 1048 L 589 1048 L 593 1052 L 594 1052 L 600 1058 L 601 1058 L 615 1072 L 616 1072 L 626 1082 L 627 1082 L 652 1058 L 653 1058 L 659 1052 L 660 1052 L 664 1048 L 665 1048 L 672 1042 L 676 1040 L 679 1037 L 685 1034 L 690 1030 L 695 1028 L 697 1026 L 725 1012 L 727 1012 L 745 1003 L 747 1001 L 750 1000 L 752 998 L 755 997 L 757 995 L 758 995 L 760 993 L 764 991 L 772 984 L 773 984 L 793 964 L 793 963 L 799 956 L 799 955 L 805 947 L 806 944 L 808 942 L 815 928 L 815 926 L 817 923 L 817 921 L 819 918 L 819 916 L 821 912 L 821 909 L 823 905 L 824 896 L 825 895 L 920 895 L 920 801 L 923 799 L 927 799 L 928 798 L 932 798 L 936 796 L 939 796 L 949 791 L 951 791 L 955 789 L 957 787 L 960 786 L 962 784 L 965 783 L 971 778 L 972 778 L 976 774 L 977 774 L 990 761 L 990 760 L 994 756 L 994 755 L 1000 748 L 1000 747 L 1006 739 L 1007 736 L 1009 734 L 1011 729 L 1013 727 L 1015 722 L 1017 720 L 1020 713 L 1022 711 L 1024 706 L 1026 704 L 1030 696 L 1032 694 L 1034 690 L 1037 687 L 1039 683 L 1045 676 L 1045 675 L 1049 671 L 1049 670 L 1068 651 L 1069 651 L 1074 646 L 1075 646 L 1078 643 L 1082 641 L 1088 636 L 1091 635 L 1093 633 L 1096 632 L 1098 630 L 1105 627 L 1099 624 L 1097 622 L 1092 620 L 1090 618 L 1086 616 L 1083 613 L 1079 611 L 1076 608 L 1075 608 L 1071 604 L 1070 604 L 1062 596 L 1061 596 L 1060 594 L 1048 582 L 1048 581 L 1044 577 L 1044 576 L 1041 573 L 1041 572 L 1038 569 L 1036 565 L 1031 559 L 1030 556 L 1028 554 L 1025 548 L 1023 546 L 1022 543 L 1020 541 L 1017 534 L 1015 532 L 1014 529 L 1012 527 L 1010 522 L 1008 520 L 1007 517 L 1003 512 L 1002 509 L 999 506 L 999 505 L 993 498 L 993 497 L 988 492 L 988 491 L 981 484 L 980 484 L 969 474 L 968 474 L 960 468 L 946 461 L 944 461 L 943 460 L 941 460 L 940 459 L 938 459 L 934 457 L 931 457 L 930 456 L 927 456 L 926 455 L 921 455 L 920 454 L 920 356 L 822 356 L 820 353 L 820 350 L 819 349 L 819 346 L 818 345 L 818 342 L 817 341 L 816 336 L 811 326 L 811 324 L 809 320 L 807 318 L 805 313 L 803 311 L 803 310 L 801 308 L 799 304 L 796 301 L 796 300 L 791 295 L 791 294 L 777 280 L 776 280 L 772 276 L 771 276 L 764 270 L 763 270 L 758 266 L 755 265 L 753 263 L 750 262 L 748 260 L 720 246 L 718 246 L 698 236 L 696 234 L 689 231 L 687 229 L 686 229 L 684 227 L 683 227 L 681 225 L 677 223 L 674 220 L 673 220 L 666 214 L 665 214 L 661 210 L 660 210 L 649 199 L 648 199 L 646 197 L 646 196 L 633 183 L 633 182 L 628 177 L 628 176 Z M 626 214 L 627 214 L 630 217 L 630 218 L 645 233 L 646 233 L 656 242 L 657 242 L 660 245 L 661 245 L 664 248 L 665 248 L 673 254 L 683 259 L 685 261 L 711 274 L 713 274 L 731 283 L 733 285 L 743 290 L 749 295 L 753 297 L 757 301 L 758 301 L 773 316 L 773 317 L 778 322 L 778 323 L 784 331 L 791 345 L 792 350 L 794 353 L 794 356 L 795 357 L 796 364 L 797 365 L 797 369 L 798 370 L 798 378 L 799 379 L 799 384 L 800 383 L 890 383 L 892 385 L 891 386 L 891 469 L 892 470 L 892 477 L 891 479 L 910 479 L 911 480 L 916 480 L 917 481 L 924 482 L 925 483 L 927 483 L 930 485 L 932 485 L 942 490 L 944 492 L 945 492 L 947 494 L 951 496 L 954 499 L 955 499 L 971 515 L 971 516 L 977 523 L 977 524 L 981 529 L 982 532 L 986 537 L 988 542 L 990 544 L 992 549 L 994 551 L 995 554 L 997 556 L 1002 566 L 1006 571 L 1007 574 L 1009 576 L 1009 577 L 1011 579 L 1013 583 L 1019 590 L 1019 591 L 1028 601 L 1028 602 L 1040 614 L 1041 614 L 1046 619 L 1047 619 L 1050 622 L 1051 622 L 1056 626 L 1056 627 L 1054 629 L 1050 631 L 1038 642 L 1037 642 L 1019 662 L 1019 663 L 1016 666 L 1016 667 L 1014 669 L 1014 670 L 1006 681 L 1005 684 L 1003 686 L 1002 689 L 1000 691 L 999 694 L 997 696 L 989 712 L 987 714 L 985 719 L 983 721 L 982 724 L 980 726 L 980 727 L 978 729 L 978 730 L 976 732 L 974 736 L 970 740 L 970 741 L 955 756 L 954 756 L 951 759 L 950 759 L 945 763 L 942 764 L 940 766 L 934 769 L 932 769 L 929 771 L 924 772 L 923 773 L 919 773 L 918 774 L 914 774 L 913 775 L 892 775 L 892 865 L 890 867 L 804 867 L 804 871 L 803 872 L 803 878 L 802 879 L 802 884 L 801 885 L 801 889 L 800 890 L 800 893 L 799 894 L 799 896 L 798 897 L 798 900 L 797 901 L 796 906 L 794 909 L 794 911 L 786 927 L 784 929 L 783 932 L 781 934 L 779 938 L 771 947 L 771 948 L 759 960 L 758 960 L 753 965 L 752 965 L 748 969 L 747 969 L 736 977 L 692 999 L 690 1001 L 680 1006 L 678 1008 L 677 1008 L 675 1010 L 674 1010 L 672 1012 L 668 1014 L 665 1017 L 664 1017 L 661 1020 L 660 1020 L 656 1024 L 655 1024 L 649 1030 L 648 1030 L 633 1045 L 633 1046 L 627 1052 L 626 1052 L 620 1046 L 620 1045 L 605 1030 L 604 1030 L 598 1024 L 597 1024 L 593 1020 L 592 1020 L 585 1014 L 584 1014 L 573 1006 L 563 1001 L 561 999 L 517 977 L 515 975 L 514 975 L 512 973 L 511 973 L 509 971 L 505 969 L 501 965 L 500 965 L 495 960 L 494 960 L 482 948 L 482 947 L 478 943 L 478 942 L 474 938 L 474 937 L 470 932 L 469 929 L 467 927 L 459 911 L 459 909 L 457 906 L 457 904 L 455 900 L 455 897 L 453 893 L 453 890 L 452 889 L 452 885 L 451 884 L 451 879 L 450 878 L 450 872 L 449 871 L 449 867 L 363 867 L 361 865 L 361 775 L 340 775 L 339 774 L 330 773 L 329 772 L 324 771 L 321 769 L 319 769 L 313 766 L 311 764 L 308 763 L 306 761 L 302 759 L 299 756 L 298 756 L 283 741 L 283 740 L 279 736 L 279 735 L 271 724 L 270 721 L 268 719 L 266 714 L 264 712 L 256 696 L 254 694 L 253 691 L 251 689 L 247 681 L 245 679 L 245 678 L 243 676 L 243 675 L 241 673 L 241 672 L 239 670 L 237 666 L 234 663 L 234 662 L 216 642 L 215 642 L 208 635 L 207 635 L 203 631 L 202 631 L 197 627 L 197 626 L 199 624 L 203 622 L 212 614 L 213 614 L 225 602 L 225 601 L 234 591 L 234 590 L 240 583 L 240 582 L 246 574 L 247 571 L 251 566 L 256 556 L 258 554 L 263 544 L 265 542 L 267 537 L 271 532 L 272 529 L 274 527 L 276 523 L 279 520 L 279 519 L 282 516 L 282 515 L 298 499 L 299 499 L 302 496 L 303 496 L 311 490 L 321 485 L 323 485 L 329 482 L 332 482 L 333 481 L 336 481 L 337 480 L 342 480 L 343 479 L 362 479 L 361 477 L 361 470 L 362 469 L 362 386 L 361 385 L 363 383 L 453 383 L 454 384 L 454 379 L 455 378 L 455 370 L 456 369 L 456 365 L 457 364 L 457 361 L 458 360 L 459 353 L 461 350 L 462 345 L 469 331 L 471 329 L 471 328 L 473 326 L 475 322 L 480 317 L 480 316 L 495 301 L 496 301 L 500 297 L 504 295 L 507 292 L 513 289 L 515 287 L 520 285 L 522 283 L 540 274 L 542 274 L 568 261 L 570 259 L 580 254 L 582 252 L 583 252 L 585 250 L 589 248 L 592 245 L 593 245 L 596 242 L 597 242 L 601 238 L 602 238 L 607 233 L 608 233 L 623 218 L 623 217 Z M 624 975 L 620 977 L 618 980 L 618 988 L 622 992 L 624 993 L 629 993 L 631 992 L 635 988 L 635 980 L 633 977 L 629 975 Z M 671 950 L 668 947 L 666 946 L 664 946 L 663 945 L 656 945 L 650 948 L 645 953 L 645 954 L 643 956 L 640 962 L 640 964 L 639 966 L 640 964 L 645 959 L 649 957 L 651 957 L 652 956 L 659 956 L 660 955 L 665 954 L 667 952 L 669 951 L 671 951 Z M 582 950 L 582 951 L 584 951 L 588 954 L 590 954 L 594 956 L 601 956 L 602 957 L 604 957 L 608 959 L 613 964 L 614 966 L 613 964 L 613 962 L 610 956 L 608 954 L 608 953 L 603 948 L 597 945 L 590 945 L 589 946 L 587 946 L 585 947 Z M 626 926 L 626 927 L 623 930 L 623 931 L 620 934 L 619 936 L 619 938 L 618 939 L 618 945 L 625 959 L 625 961 L 626 962 L 626 965 L 627 965 L 627 962 L 628 961 L 628 959 L 635 945 L 635 939 L 634 938 L 634 936 L 633 934 L 630 931 L 630 930 L 627 927 L 627 926 Z M 474 899 L 476 903 L 476 905 L 482 917 L 484 919 L 485 922 L 488 925 L 490 929 L 495 934 L 495 935 L 508 948 L 509 948 L 516 954 L 517 954 L 525 960 L 528 961 L 530 963 L 570 983 L 572 985 L 575 986 L 577 988 L 580 989 L 582 991 L 583 991 L 585 993 L 586 993 L 588 995 L 592 997 L 595 1000 L 596 1000 L 599 1003 L 600 1003 L 604 1007 L 605 1007 L 626 1028 L 626 1029 L 627 1029 L 627 1028 L 648 1007 L 649 1007 L 653 1003 L 654 1003 L 661 997 L 662 997 L 673 989 L 681 985 L 683 983 L 723 963 L 725 961 L 728 960 L 730 958 L 731 958 L 733 956 L 737 954 L 744 948 L 745 948 L 758 935 L 758 934 L 763 929 L 765 925 L 768 922 L 779 900 L 779 899 L 771 907 L 768 913 L 766 915 L 765 918 L 759 925 L 759 926 L 755 930 L 755 931 L 743 943 L 742 943 L 737 948 L 736 948 L 733 951 L 732 951 L 727 955 L 719 959 L 717 961 L 688 975 L 686 977 L 672 984 L 670 986 L 669 986 L 667 988 L 666 988 L 664 990 L 663 990 L 661 992 L 657 994 L 650 1000 L 649 1000 L 644 1005 L 643 1005 L 627 1021 L 626 1021 L 610 1005 L 609 1005 L 604 1000 L 603 1000 L 596 994 L 595 994 L 593 992 L 592 992 L 581 984 L 567 977 L 565 975 L 536 961 L 534 959 L 526 955 L 524 953 L 520 951 L 517 948 L 516 948 L 511 943 L 510 943 L 498 931 L 498 930 L 490 921 L 490 920 L 488 918 L 487 915 L 485 913 L 482 907 Z M 874 794 L 871 798 L 871 799 L 869 801 L 869 802 L 866 805 L 866 806 L 854 818 L 850 820 L 847 820 L 846 821 L 846 825 L 843 831 L 840 834 L 840 835 L 829 845 L 828 845 L 824 848 L 874 848 Z M 379 794 L 379 848 L 429 848 L 425 845 L 424 845 L 413 835 L 413 834 L 410 831 L 407 825 L 407 821 L 406 820 L 403 820 L 399 818 L 387 806 L 387 805 L 384 802 L 384 801 L 382 799 L 382 798 Z M 961 646 L 959 646 L 955 648 L 953 650 L 952 650 L 947 655 L 946 657 L 946 659 L 945 660 L 945 664 L 946 665 L 946 668 L 948 671 L 948 669 L 949 667 L 951 665 L 951 664 L 954 660 L 954 658 L 956 655 L 956 653 L 958 651 L 958 650 Z M 292 646 L 295 650 L 295 651 L 297 653 L 297 655 L 299 658 L 299 660 L 302 664 L 302 665 L 304 667 L 305 669 L 305 671 L 307 668 L 307 665 L 308 664 L 308 660 L 307 659 L 307 657 L 306 655 L 301 650 L 300 650 L 298 648 L 294 646 Z M 871 644 L 867 647 L 867 652 L 868 654 L 870 655 L 875 655 L 877 653 L 878 651 L 878 649 L 875 645 L 873 644 Z M 380 644 L 376 647 L 375 649 L 375 651 L 378 655 L 383 655 L 385 654 L 386 652 L 386 647 L 384 645 L 382 644 Z M 871 620 L 866 623 L 865 625 L 865 630 L 866 632 L 869 635 L 875 635 L 879 632 L 879 630 L 880 629 L 880 626 L 879 624 L 876 621 L 874 620 Z M 379 620 L 377 621 L 374 624 L 373 626 L 373 629 L 374 630 L 374 632 L 376 634 L 378 635 L 384 635 L 387 632 L 388 630 L 388 625 L 386 622 L 382 620 Z M 955 611 L 953 611 L 951 612 L 949 614 L 948 614 L 946 616 L 945 616 L 934 624 L 928 627 L 936 631 L 938 633 L 942 635 L 945 638 L 946 638 L 954 644 L 961 638 L 967 635 L 970 632 L 973 631 L 975 629 L 979 627 L 975 624 L 972 623 L 967 619 L 964 618 L 962 616 L 958 614 Z M 300 611 L 298 611 L 295 614 L 294 614 L 289 618 L 286 619 L 284 621 L 283 621 L 281 623 L 278 624 L 274 627 L 275 627 L 280 631 L 283 632 L 286 635 L 292 638 L 299 644 L 301 643 L 304 640 L 308 638 L 311 635 L 315 633 L 317 631 L 325 627 L 319 624 L 317 622 L 316 622 L 314 620 L 313 620 L 311 618 L 310 618 L 308 616 L 307 616 L 305 614 L 304 614 Z M 870 600 L 868 601 L 867 603 L 867 608 L 871 611 L 874 611 L 877 608 L 878 606 L 878 604 L 875 600 Z M 378 600 L 376 602 L 375 604 L 375 606 L 376 608 L 379 611 L 382 611 L 386 608 L 386 603 L 385 601 L 383 600 Z M 947 584 L 946 586 L 946 588 L 945 589 L 945 594 L 946 595 L 946 597 L 947 599 L 953 605 L 961 609 L 961 608 L 957 603 L 954 597 L 953 592 L 949 587 L 948 584 Z M 306 584 L 305 584 L 304 587 L 300 592 L 299 597 L 296 603 L 292 608 L 292 609 L 300 605 L 306 599 L 307 597 L 307 595 L 308 594 L 308 589 L 307 588 L 307 586 Z M 817 401 L 817 402 L 822 404 L 828 409 L 829 409 L 833 413 L 834 413 L 842 421 L 842 422 L 845 426 L 845 429 L 846 431 L 849 431 L 855 434 L 866 445 L 866 446 L 869 449 L 872 455 L 874 457 L 874 401 L 870 401 L 869 402 L 866 402 L 865 401 L 837 401 L 836 402 L 833 402 L 832 401 Z M 379 457 L 381 455 L 382 452 L 387 446 L 387 445 L 398 434 L 399 434 L 401 432 L 403 432 L 404 431 L 407 431 L 409 424 L 411 422 L 411 421 L 419 413 L 420 413 L 424 409 L 425 409 L 431 404 L 436 402 L 436 401 L 421 401 L 420 402 L 417 402 L 416 401 L 388 401 L 387 402 L 384 402 L 383 401 L 379 401 Z M 673 319 L 669 319 L 668 320 L 663 320 L 662 321 L 660 321 L 650 326 L 647 326 L 642 323 L 642 324 L 644 326 L 644 327 L 649 332 L 653 334 L 655 334 L 656 335 L 660 335 L 661 334 L 663 334 L 667 332 L 669 330 L 669 329 L 671 327 L 671 325 L 672 324 L 672 321 Z M 580 319 L 581 321 L 581 324 L 582 325 L 582 327 L 584 329 L 584 330 L 586 332 L 590 334 L 592 334 L 593 335 L 597 335 L 598 334 L 600 334 L 604 332 L 609 327 L 609 326 L 611 324 L 611 323 L 606 326 L 603 326 L 602 325 L 600 325 L 590 320 L 585 320 L 584 319 Z M 626 285 L 626 286 L 620 293 L 618 297 L 618 299 L 617 300 L 617 309 L 625 324 L 625 326 L 626 328 L 627 328 L 628 326 L 628 324 L 636 309 L 636 300 L 635 299 L 635 297 L 633 293 L 630 290 L 630 289 L 627 286 L 627 285 Z M 626 239 L 609 256 L 608 256 L 597 265 L 596 265 L 585 273 L 580 275 L 578 277 L 571 280 L 569 282 L 559 287 L 557 287 L 544 294 L 542 294 L 528 301 L 526 303 L 518 307 L 515 310 L 514 310 L 507 316 L 506 316 L 494 328 L 494 329 L 490 333 L 490 334 L 484 342 L 480 350 L 480 352 L 477 357 L 477 359 L 476 360 L 476 363 L 474 367 L 474 372 L 473 373 L 473 381 L 472 382 L 472 389 L 473 390 L 473 398 L 474 399 L 474 402 L 473 403 L 466 403 L 465 404 L 461 404 L 460 405 L 457 405 L 443 412 L 432 423 L 432 424 L 430 426 L 427 432 L 426 437 L 425 438 L 425 442 L 424 443 L 424 448 L 423 449 L 415 449 L 414 450 L 409 451 L 403 454 L 397 459 L 396 459 L 389 466 L 389 467 L 384 473 L 379 483 L 379 485 L 378 486 L 378 489 L 377 490 L 377 493 L 376 494 L 376 500 L 375 501 L 373 501 L 370 499 L 367 499 L 366 498 L 362 498 L 361 497 L 344 497 L 343 498 L 339 498 L 338 499 L 336 499 L 335 500 L 330 501 L 327 503 L 325 503 L 321 505 L 319 507 L 316 508 L 313 511 L 312 511 L 308 515 L 307 515 L 299 523 L 299 524 L 295 528 L 295 529 L 292 532 L 292 533 L 284 544 L 282 549 L 280 551 L 279 554 L 277 556 L 270 570 L 266 575 L 265 578 L 263 580 L 260 586 L 257 589 L 256 592 L 253 595 L 253 596 L 250 599 L 250 600 L 245 605 L 245 606 L 229 622 L 228 622 L 224 626 L 223 626 L 223 627 L 225 628 L 229 632 L 230 632 L 243 645 L 243 646 L 252 656 L 252 657 L 254 659 L 256 663 L 259 666 L 259 667 L 263 672 L 264 675 L 266 677 L 267 680 L 269 682 L 271 687 L 273 689 L 276 696 L 278 698 L 281 705 L 283 707 L 284 710 L 286 712 L 287 715 L 289 717 L 289 718 L 291 720 L 293 724 L 297 728 L 297 729 L 310 742 L 311 742 L 317 747 L 322 749 L 324 751 L 326 751 L 329 753 L 331 753 L 335 755 L 338 755 L 339 756 L 344 756 L 345 757 L 355 757 L 356 756 L 361 756 L 362 755 L 365 755 L 366 754 L 368 754 L 373 751 L 375 751 L 376 752 L 376 758 L 377 759 L 377 762 L 378 763 L 379 768 L 384 778 L 386 780 L 388 784 L 399 795 L 400 795 L 403 798 L 413 803 L 415 803 L 416 804 L 420 804 L 424 806 L 424 817 L 425 818 L 425 821 L 426 822 L 426 824 L 430 832 L 439 842 L 440 842 L 443 845 L 449 848 L 449 843 L 445 840 L 444 840 L 435 831 L 435 830 L 433 828 L 430 822 L 430 820 L 429 819 L 429 815 L 428 814 L 428 808 L 429 807 L 429 802 L 430 801 L 422 801 L 421 800 L 418 800 L 417 799 L 415 799 L 407 795 L 401 790 L 400 790 L 393 783 L 393 782 L 388 776 L 383 766 L 383 764 L 381 760 L 381 757 L 380 756 L 380 748 L 379 747 L 379 742 L 378 742 L 374 746 L 366 750 L 364 750 L 363 751 L 360 751 L 359 752 L 352 752 L 351 753 L 350 752 L 341 752 L 340 751 L 337 751 L 336 750 L 331 749 L 321 744 L 319 742 L 315 740 L 311 736 L 310 736 L 306 732 L 306 731 L 298 723 L 298 722 L 290 711 L 286 703 L 284 701 L 281 694 L 279 692 L 272 678 L 270 676 L 269 673 L 267 671 L 267 670 L 265 668 L 265 667 L 263 665 L 263 664 L 261 662 L 259 658 L 256 655 L 256 654 L 253 651 L 253 650 L 250 647 L 250 646 L 244 640 L 244 639 L 236 631 L 235 631 L 231 627 L 231 626 L 233 624 L 234 624 L 247 611 L 247 610 L 255 601 L 257 597 L 260 594 L 260 593 L 262 591 L 262 590 L 270 579 L 275 569 L 277 567 L 280 560 L 282 558 L 283 555 L 285 553 L 286 550 L 288 548 L 289 545 L 291 543 L 294 537 L 301 529 L 301 528 L 312 517 L 313 517 L 316 514 L 317 514 L 322 510 L 332 505 L 334 505 L 338 503 L 341 503 L 342 502 L 347 502 L 348 501 L 357 501 L 358 502 L 364 502 L 365 503 L 368 503 L 371 505 L 373 505 L 377 507 L 379 509 L 380 509 L 380 496 L 381 495 L 381 491 L 382 490 L 383 485 L 387 477 L 389 475 L 391 471 L 401 461 L 402 461 L 405 458 L 411 455 L 413 455 L 417 453 L 421 453 L 422 452 L 424 452 L 425 453 L 430 453 L 429 452 L 429 441 L 430 440 L 430 437 L 431 436 L 431 434 L 433 430 L 437 425 L 437 424 L 447 415 L 448 415 L 450 413 L 456 410 L 458 410 L 459 409 L 462 409 L 463 408 L 468 408 L 469 407 L 474 407 L 475 408 L 481 408 L 479 404 L 479 401 L 478 400 L 478 396 L 477 395 L 477 377 L 478 376 L 478 371 L 479 370 L 479 366 L 480 365 L 480 363 L 481 362 L 482 357 L 485 352 L 485 350 L 487 348 L 489 343 L 491 341 L 493 337 L 497 333 L 497 332 L 510 319 L 511 319 L 515 315 L 516 315 L 524 309 L 527 308 L 529 306 L 555 293 L 557 293 L 577 283 L 579 281 L 582 280 L 584 278 L 592 274 L 594 272 L 595 272 L 597 270 L 601 268 L 608 262 L 609 262 L 614 257 L 615 257 L 626 246 L 627 246 L 638 257 L 639 257 L 644 262 L 645 262 L 648 265 L 649 265 L 652 268 L 653 268 L 661 274 L 664 275 L 666 277 L 669 278 L 671 280 L 674 281 L 676 283 L 696 293 L 698 293 L 724 306 L 726 308 L 729 309 L 731 311 L 732 311 L 734 313 L 738 315 L 742 319 L 743 319 L 756 332 L 756 333 L 760 337 L 760 338 L 764 343 L 766 348 L 768 350 L 768 352 L 771 357 L 771 359 L 772 360 L 772 362 L 774 366 L 774 370 L 775 371 L 775 376 L 776 377 L 776 395 L 775 396 L 775 400 L 774 401 L 774 404 L 772 408 L 778 408 L 779 407 L 784 407 L 785 408 L 790 408 L 791 409 L 794 409 L 795 410 L 797 410 L 803 413 L 809 418 L 810 418 L 816 424 L 816 425 L 818 427 L 818 428 L 820 430 L 822 434 L 822 436 L 823 437 L 823 440 L 824 441 L 824 452 L 823 453 L 828 453 L 829 452 L 831 452 L 832 453 L 836 453 L 837 454 L 842 455 L 848 458 L 851 461 L 852 461 L 862 471 L 862 472 L 866 477 L 870 485 L 870 487 L 872 491 L 872 495 L 873 496 L 873 509 L 885 503 L 888 503 L 889 502 L 895 502 L 896 501 L 905 501 L 906 502 L 911 502 L 912 503 L 915 503 L 916 504 L 921 505 L 931 510 L 933 512 L 937 514 L 940 517 L 941 517 L 952 528 L 952 529 L 959 537 L 962 543 L 964 545 L 965 548 L 967 550 L 968 553 L 970 555 L 971 558 L 973 560 L 976 567 L 978 569 L 983 579 L 985 581 L 985 582 L 987 584 L 987 585 L 989 587 L 989 588 L 991 590 L 993 594 L 996 597 L 998 601 L 1006 610 L 1006 611 L 1019 624 L 1020 624 L 1022 626 L 1022 627 L 1018 631 L 1017 631 L 1009 639 L 1009 640 L 1003 646 L 1003 647 L 994 658 L 994 659 L 992 661 L 992 662 L 984 673 L 979 683 L 977 685 L 974 692 L 972 694 L 969 701 L 967 703 L 966 706 L 964 708 L 963 711 L 961 713 L 961 714 L 959 716 L 959 717 L 957 719 L 955 723 L 947 731 L 947 732 L 938 740 L 937 740 L 932 744 L 922 749 L 920 749 L 916 751 L 913 751 L 912 752 L 903 752 L 902 753 L 901 752 L 894 752 L 893 751 L 890 751 L 889 750 L 887 750 L 879 746 L 875 742 L 874 742 L 874 747 L 873 748 L 873 756 L 872 757 L 872 760 L 871 761 L 870 766 L 865 776 L 860 782 L 860 783 L 853 790 L 852 790 L 846 795 L 838 799 L 836 799 L 835 800 L 832 800 L 831 801 L 823 801 L 824 802 L 824 807 L 825 808 L 825 814 L 824 815 L 824 819 L 823 820 L 823 822 L 820 828 L 818 830 L 818 831 L 809 840 L 808 840 L 804 843 L 804 848 L 810 845 L 813 842 L 814 842 L 823 832 L 827 824 L 827 822 L 828 821 L 828 818 L 829 817 L 829 806 L 833 804 L 837 804 L 838 803 L 840 803 L 850 798 L 853 795 L 854 795 L 865 784 L 865 783 L 869 778 L 874 768 L 874 766 L 876 762 L 876 759 L 877 758 L 877 752 L 878 751 L 880 751 L 885 754 L 887 754 L 888 755 L 891 755 L 892 756 L 897 756 L 898 757 L 908 757 L 909 756 L 914 756 L 915 755 L 918 755 L 919 754 L 924 753 L 927 751 L 929 751 L 931 749 L 936 747 L 942 742 L 943 742 L 956 729 L 956 728 L 960 724 L 960 723 L 966 715 L 967 712 L 969 710 L 970 707 L 972 705 L 975 698 L 977 696 L 980 689 L 982 687 L 984 682 L 986 680 L 990 672 L 992 670 L 994 666 L 997 663 L 997 662 L 999 660 L 1001 656 L 1010 646 L 1010 645 L 1023 632 L 1024 632 L 1028 628 L 1029 628 L 1030 626 L 1029 626 L 1025 622 L 1024 622 L 1008 606 L 1008 605 L 1003 600 L 1003 599 L 997 592 L 996 589 L 991 583 L 990 580 L 988 578 L 987 575 L 985 573 L 981 565 L 979 563 L 976 556 L 974 554 L 973 551 L 971 549 L 969 544 L 967 542 L 967 541 L 965 539 L 965 538 L 963 536 L 961 532 L 954 524 L 954 523 L 946 515 L 945 515 L 941 511 L 940 511 L 937 508 L 934 507 L 932 505 L 928 503 L 926 503 L 923 501 L 921 501 L 920 500 L 915 499 L 914 498 L 910 498 L 909 497 L 892 497 L 891 498 L 887 498 L 886 499 L 883 499 L 880 501 L 878 501 L 877 500 L 877 494 L 876 493 L 876 490 L 875 489 L 875 486 L 874 485 L 874 483 L 869 473 L 864 467 L 864 466 L 857 459 L 856 459 L 850 454 L 844 451 L 839 450 L 838 449 L 830 449 L 829 448 L 829 443 L 828 442 L 828 438 L 827 437 L 826 432 L 823 426 L 821 424 L 821 423 L 810 412 L 796 405 L 793 405 L 792 404 L 788 404 L 787 403 L 780 403 L 779 402 L 779 399 L 780 398 L 780 390 L 781 389 L 781 382 L 780 381 L 780 373 L 779 372 L 779 367 L 777 363 L 777 360 L 776 359 L 776 357 L 773 352 L 773 350 L 769 342 L 767 340 L 767 339 L 765 337 L 763 333 L 759 329 L 759 328 L 747 316 L 746 316 L 742 312 L 738 310 L 735 307 L 732 306 L 730 304 L 727 303 L 725 301 L 711 294 L 709 294 L 696 287 L 694 287 L 684 282 L 682 280 L 675 277 L 673 275 L 668 273 L 666 271 L 665 271 L 663 269 L 662 269 L 660 267 L 656 265 L 645 256 L 644 256 L 627 239 Z" fill="#111111" fill-rule="evenodd"/>
  <!-- Central music note retained as the intentional asymmetric focal mark -->
  <path d="M 626 347 L 621 347 L 619 348 L 617 351 L 617 583 L 616 584 L 616 761 L 614 762 L 603 756 L 601 756 L 600 755 L 598 755 L 597 754 L 595 754 L 591 752 L 588 752 L 587 751 L 583 751 L 582 750 L 574 750 L 573 749 L 561 749 L 560 750 L 554 750 L 553 751 L 548 751 L 547 752 L 544 752 L 540 754 L 537 754 L 536 755 L 534 755 L 524 760 L 522 760 L 518 762 L 516 764 L 511 766 L 505 771 L 504 771 L 501 774 L 500 774 L 486 788 L 486 789 L 483 792 L 483 793 L 479 798 L 478 801 L 476 803 L 474 807 L 474 809 L 472 812 L 472 814 L 470 817 L 470 820 L 469 821 L 469 824 L 468 825 L 468 829 L 467 830 L 467 835 L 466 836 L 466 854 L 467 855 L 467 860 L 468 861 L 468 864 L 469 865 L 469 868 L 470 869 L 471 874 L 474 880 L 476 882 L 476 883 L 491 898 L 492 898 L 495 901 L 496 901 L 501 905 L 515 912 L 517 912 L 518 913 L 520 913 L 521 914 L 523 914 L 527 916 L 531 916 L 532 917 L 536 917 L 537 918 L 564 918 L 565 917 L 570 917 L 571 916 L 575 916 L 576 915 L 579 915 L 580 914 L 582 914 L 583 913 L 588 912 L 606 903 L 608 901 L 612 899 L 616 895 L 617 895 L 625 887 L 626 887 L 626 886 L 632 880 L 632 879 L 635 876 L 638 870 L 640 868 L 645 858 L 645 856 L 647 853 L 647 851 L 649 848 L 649 845 L 650 844 L 650 841 L 651 840 L 651 837 L 652 836 L 652 832 L 653 831 L 653 823 L 654 822 L 654 532 L 655 531 L 666 541 L 667 541 L 671 545 L 672 545 L 675 548 L 676 548 L 680 552 L 681 552 L 684 555 L 685 555 L 689 559 L 690 559 L 694 563 L 695 563 L 699 567 L 700 567 L 704 571 L 705 571 L 712 578 L 713 578 L 732 597 L 732 598 L 737 603 L 737 604 L 743 611 L 743 612 L 749 620 L 752 627 L 754 629 L 756 633 L 756 635 L 759 640 L 759 642 L 761 645 L 761 647 L 762 648 L 762 650 L 764 654 L 764 657 L 766 661 L 766 665 L 767 666 L 767 670 L 768 671 L 768 677 L 769 678 L 769 689 L 770 690 L 770 698 L 769 699 L 769 711 L 768 712 L 768 718 L 767 719 L 767 725 L 766 726 L 765 733 L 763 737 L 762 744 L 759 750 L 759 752 L 756 758 L 756 760 L 754 763 L 754 765 L 744 785 L 742 787 L 740 792 L 738 794 L 737 797 L 729 808 L 730 809 L 732 807 L 735 806 L 745 797 L 746 797 L 762 781 L 762 780 L 768 774 L 768 773 L 776 764 L 776 763 L 784 752 L 790 740 L 792 738 L 794 734 L 794 732 L 800 720 L 800 718 L 801 717 L 801 715 L 802 714 L 802 712 L 803 711 L 803 709 L 804 708 L 804 706 L 806 702 L 806 699 L 807 698 L 807 695 L 808 694 L 808 691 L 809 690 L 809 687 L 810 686 L 810 681 L 811 680 L 811 675 L 812 674 L 812 668 L 813 667 L 813 654 L 814 653 L 814 634 L 813 633 L 813 623 L 812 622 L 812 616 L 811 615 L 811 610 L 810 609 L 810 606 L 809 605 L 809 602 L 808 601 L 808 598 L 807 597 L 807 594 L 806 593 L 806 591 L 805 590 L 804 585 L 802 582 L 801 577 L 792 559 L 790 557 L 788 552 L 786 550 L 786 549 L 784 547 L 782 543 L 779 540 L 779 539 L 776 536 L 776 535 L 773 532 L 773 531 L 763 520 L 763 519 L 755 511 L 755 510 L 731 486 L 730 486 L 717 473 L 716 473 L 680 437 L 680 436 L 673 429 L 673 428 L 669 424 L 669 423 L 664 418 L 662 414 L 659 411 L 659 410 L 656 407 L 656 406 L 652 401 L 651 398 L 649 396 L 648 393 L 646 391 L 643 384 L 641 382 L 638 376 L 638 374 L 634 367 L 634 365 L 632 362 L 632 360 L 630 357 L 630 355 L 629 354 L 628 349 Z" fill="#111111" fill-rule="evenodd"/>
  <!-- Top and bottom accents: mathematically equal edge margins -->
  <g fill="#111111">
    <polygon points="627,110 649,132 627,154 605,132"/>
    <circle cx="627" cy="165" r="7"/>
    <circle cx="627" cy="1089" r="7"/>
    <polygon points="627,1100 649,1122 627,1144 605,1122"/>
  </g>
</svg>